<svg width="2994" height="3333" viewBox="0 0 2994 3333" fill="none" xmlns="http://www.w3.org/2000/svg">

<!-- Это зона 1 -->
<g id="zone-1" class="slot-zone">
    <path d="M1611.07 1438.65C1597.87 1420.65 1555.57 1411.82 1536.07 1409.65C1515.57 1409.65 1483.07 1413.15 1444.07 1430.15C1409.49 1445.22 1365.57 1491.15 1365.57 1594.65C1365.57 1677.45 1417.9 1710.15 1444.07 1716.15L1611.07 1438.65Z" fill="#3A3A3A" fill-opacity="0.5" stroke="white" stroke-width="8"/>
    <path d="M1450.4 1561.65V1555.76H1459.87V1522.74H1451.11V1516.85H1466.27V1555.76H1476.45L1474.02 1561.65H1450.4Z" fill="white"/>
</g>

<!-- Это зона 2 -->
<g id="zone-2" class="slot-zone">
    <path d="M1663.57 1545.15C1653.57 1493.15 1631.07 1460.15 1611.07 1438.65L1444.07 1716.15C1529.07 1751.15 1593.07 1739.65 1641.07 1694.65C1689.07 1649.65 1673.57 1597.15 1663.57 1545.15Z" fill="#3A3A3A" fill-opacity="0.5" stroke="white" stroke-width="8"/>
    <path d="M1609.79 1625.65H1580.86V1620.6L1592.19 1609.33C1596.42 1605.11 1599.27 1601.93 1600.77 1599.8C1602.3 1597.66 1603.07 1595.57 1603.07 1593.52C1603.07 1591.26 1602.28 1589.45 1600.7 1588.08C1599.12 1586.72 1597.16 1586.04 1594.82 1586.04C1592.47 1586.04 1590.31 1586.57 1588.35 1587.64C1586.39 1588.66 1584.75 1589.77 1583.42 1590.96L1579.26 1586.8C1580.76 1585.23 1582.89 1583.71 1585.66 1582.26C1588.44 1580.81 1591.49 1580.08 1594.82 1580.08C1599.64 1580.08 1603.33 1581.43 1605.89 1584.12C1608.45 1586.76 1609.73 1589.75 1609.73 1593.08C1609.73 1596.15 1608.79 1599.03 1606.91 1601.72C1605.03 1604.36 1602.37 1607.37 1598.91 1610.74L1589.82 1619.64V1619.76H1611.9L1609.79 1625.65Z" fill="white"/>
</g>

<!-- Это зона 3 -->
<g id="zone-3" class="slot-zone">
    <path d="M1247.7 1406.15C1200.1 1412.15 1178.2 1457.99 1173.2 1480.15C1164.7 1510.82 1150.5 1592.75 1161.7 1675.15C1191.2 1718.65 1267.4 1820.05 1336.2 1877.65L1444.2 1716.15C1418.03 1710.15 1365.7 1677.45 1365.7 1594.65C1365.7 1491.15 1409.63 1445.22 1444.2 1430.15C1483.2 1413.15 1515.7 1409.65 1536.2 1409.65L1542.2 1276.65C1392.2 1268.65 1337.7 1284.65 1329.2 1293.65L1296.1 1336.29L1247.7 1406.15Z" fill="#3A3A3A" fill-opacity="0.5"/>
    <path d="M1296.2 1336.15L1247.7 1406.15C1200.1 1412.15 1178.2 1457.99 1173.2 1480.15C1164.7 1510.82 1150.5 1592.75 1161.7 1675.15C1191.2 1718.65 1267.4 1820.05 1336.2 1877.65L1444.2 1716.15C1418.03 1710.15 1365.7 1677.45 1365.7 1594.65C1365.7 1491.15 1409.63 1445.22 1444.2 1430.15C1483.2 1413.15 1515.7 1409.65 1536.2 1409.65L1542.2 1276.65C1392.2 1268.65 1337.7 1284.65 1329.2 1293.65L1296.1 1336.29" stroke="white" stroke-width="8"/>
    <path d="M1295 1536.42C1291.8 1536.42 1288.84 1535.89 1286.11 1534.82C1283.42 1533.71 1281.16 1532.24 1279.32 1530.4L1283.68 1526.05C1285.21 1527.46 1286.9 1528.57 1288.73 1529.38C1290.57 1530.15 1292.62 1530.53 1294.88 1530.53C1297.56 1530.53 1299.87 1529.76 1301.79 1528.23C1303.75 1526.65 1304.73 1524.56 1304.73 1521.96C1304.73 1519.18 1303.64 1517.07 1301.47 1515.62C1299.29 1514.17 1296.67 1513.44 1293.6 1513.44C1293 1513.44 1292.4 1513.47 1291.8 1513.51C1291.21 1513.55 1290.63 1513.62 1290.08 1513.7V1509.67L1303 1496.74H1282.01V1490.85H1310.56V1496.04L1298.52 1508.07V1508.2C1302.24 1508.62 1305.31 1510.1 1307.74 1512.61C1310.22 1515.09 1311.45 1518.18 1311.45 1521.89C1311.45 1525.95 1309.87 1529.38 1306.72 1532.2C1303.56 1535.01 1299.66 1536.42 1295 1536.42Z" fill="white"/>
</g>

<!-- Это зона 4 -->
<g id="zone-4" class="slot-zone">
    <path d="M1545.07 1933.65L1686.07 1947.15L1704.82 1932.65L1723.57 1918.15L1915.57 1788.65L1855.57 1687.15L1861.07 1610.65C1845.88 1503.94 1714.28 1337.09 1650.22 1266.82C1629.5 1277.06 1569.92 1277.65 1542.57 1276.65L1536.07 1409.65C1555.57 1411.82 1597.87 1420.65 1611.07 1438.65C1627.57 1461.15 1653.57 1493.15 1663.57 1545.15C1673.57 1597.15 1689.07 1649.65 1641.07 1694.65C1593.07 1739.65 1529.07 1751.15 1444.07 1716.15L1336.07 1877.65L1368.57 1903.65C1399.77 1929.65 1465.57 1953.82 1494.57 1962.65L1545.07 1933.65Z" fill="#3A3A3A" fill-opacity="0.5"/>
    <path d="M1650.07 1266.65C1714.07 1336.82 1845.87 1503.85 1861.07 1610.65L1855.57 1687.15L1915.57 1788.65L1723.57 1918.15L1704.82 1932.65L1686.07 1947.15L1545.07 1933.65L1494.57 1962.65C1465.57 1953.82 1399.77 1929.65 1368.57 1903.65L1336.07 1877.65L1444.07 1716.15C1529.07 1751.15 1593.07 1739.65 1641.07 1694.65C1689.07 1649.65 1673.57 1597.15 1663.57 1545.15C1653.57 1493.15 1627.57 1461.15 1611.07 1438.65C1597.87 1420.65 1555.57 1411.82 1536.07 1409.65L1542.57 1276.65C1570.07 1277.65 1630.17 1277.05 1650.57 1266.65" stroke="white" stroke-width="8"/>
    <path d="M1736.45 1732.65V1722.6H1714.88V1717.8L1727.62 1687.85H1734.4L1721.86 1716.91V1717.04H1736.45V1703.53H1742.85V1717.04H1750.27L1748.23 1722.6H1742.85V1732.65H1736.45Z" fill="white"/>
</g>

<!-- Это зона 5А -->
<g id="zone-5a" class="slot-zone">
    <path d="M902.568 903.652L826.068 1084.65L1013.57 1170.65L1066.57 1188.15L1151.57 1027.15L1156.07 982.152L1275.57 890.152L1246.57 854.152L1302.57 848.652L1326.07 862.652L1334.07 761.152L1302.57 666.152V535.652C1263.9 517.986 1182.57 470.352 1166.57 421.152C1144.4 429.652 1083.77 461.552 1018.57 521.152C937.068 595.652 865.568 605.152 823.568 608.152C789.968 610.552 773.568 617.819 769.568 621.152L902.568 903.652Z" fill="#3A3A3A" fill-opacity="0.5" stroke="white" stroke-width="8"/>
    <path d="M1058.16 792.42C1054.66 792.42 1051.59 791.866 1048.95 790.756C1046.34 789.647 1044.12 788.196 1042.29 786.404L1046.71 781.988C1048.24 783.396 1049.93 784.506 1051.76 785.316C1053.64 786.084 1055.77 786.468 1058.16 786.468C1061.19 786.468 1063.6 785.615 1065.39 783.908C1067.23 782.159 1068.15 780.068 1068.15 777.636C1068.15 775.29 1067.31 773.284 1065.65 771.62C1063.99 769.914 1061.64 769.06 1058.61 769.06C1057.16 769.06 1055.75 769.274 1054.39 769.7C1053.02 770.084 1051.8 770.618 1050.74 771.3L1045.3 770.724L1046.58 746.852H1074.03L1071.92 752.74H1051.95L1051.25 765.284H1051.38C1052.44 764.73 1053.7 764.26 1055.15 763.876C1056.65 763.492 1058.2 763.3 1059.83 763.3C1061.66 763.3 1063.47 763.62 1065.27 764.26C1067.1 764.858 1068.72 765.754 1070.13 766.948C1071.58 768.143 1072.73 769.658 1073.59 771.492C1074.48 773.284 1074.93 775.354 1074.93 777.7C1074.93 781.711 1073.37 785.167 1070.26 788.068C1067.14 790.97 1063.11 792.42 1058.16 792.42ZM1094.15 774.82H1107.85L1101.06 756.708H1100.94L1094.15 774.82ZM1087.94 791.652H1080.65L1098.25 746.852H1104.07L1121.61 791.652H1114.06L1109.9 780.388H1092.1L1087.94 791.652Z" fill="white"/>
</g>

<!-- Это зона 5Б -->
<g id="zone-5b" class="slot-zone">
    <path d="M1334.07 761.152L1326.07 862.652C1431.57 857.319 1664.67 864.552 1753.07 936.152L1765.57 893.152L2018.57 649.652L1885.57 529.652C1877.73 524.819 1851.17 514.652 1807.57 512.652C1753.07 510.152 1686.57 541.652 1396.57 394.152C1338.57 392.819 1211.37 396.352 1166.57 421.152C1182.57 470.352 1263.9 517.985 1302.57 535.652V666.152L1334.07 761.152Z" fill="#3A3A3A" fill-opacity="0.5" stroke="white" stroke-width="8"/>
    <path d="M1561.88 690.42C1558.38 690.42 1555.31 689.866 1552.66 688.756C1550.06 687.647 1547.84 686.196 1546.01 684.404L1550.42 679.988C1551.96 681.396 1553.65 682.506 1555.48 683.316C1557.36 684.084 1559.49 684.468 1561.88 684.468C1564.91 684.468 1567.32 683.615 1569.11 681.908C1570.95 680.159 1571.86 678.068 1571.86 675.636C1571.86 673.29 1571.03 671.284 1569.37 669.62C1567.7 667.914 1565.36 667.06 1562.33 667.06C1560.88 667.06 1559.47 667.274 1558.1 667.7C1556.74 668.084 1555.52 668.618 1554.46 669.3L1549.02 668.724L1550.3 644.852H1577.75L1575.64 650.74H1555.67L1554.97 663.284H1555.1C1556.16 662.73 1557.42 662.26 1558.87 661.876C1560.37 661.492 1561.92 661.3 1563.54 661.3C1565.38 661.3 1567.19 661.62 1568.98 662.26C1570.82 662.858 1572.44 663.754 1573.85 664.948C1575.3 666.143 1576.45 667.658 1577.3 669.492C1578.2 671.284 1578.65 673.354 1578.65 675.7C1578.65 679.711 1577.09 683.167 1573.98 686.068C1570.86 688.97 1566.83 690.42 1561.88 690.42ZM1595.74 683.828H1604C1606.6 683.828 1608.78 683.146 1610.53 681.78C1612.32 680.372 1613.21 678.495 1613.21 676.148C1613.21 673.802 1612.32 671.946 1610.53 670.58C1608.78 669.172 1606.6 668.468 1604 668.468H1595.74V683.828ZM1589.15 689.652V644.852H1616.99L1614.88 650.74H1595.74V662.644H1604.38C1606.94 662.644 1609.2 663.028 1611.17 663.796C1613.13 664.564 1614.75 665.588 1616.03 666.868C1617.35 668.106 1618.33 669.535 1618.97 671.156C1619.66 672.778 1620 674.442 1620 676.148C1620 677.855 1619.66 679.519 1618.97 681.14C1618.33 682.762 1617.35 684.212 1616.03 685.492C1614.75 686.73 1613.13 687.732 1611.17 688.5C1609.2 689.268 1606.94 689.652 1604.38 689.652H1589.15Z" fill="white"/>
</g>

<!-- Это зона 5В -->
<g id="zone-5c" class="slot-zone">
    <path d="M1753.07 936.152C1664.67 864.552 1431.57 857.319 1326.07 862.652L1302.57 848.652L1246.57 854.152L1275.57 890.152L1156.07 982.152L1151.57 1027.15L1066.57 1188.15L1123.57 1207.15L1296.07 1336.15L1329.07 1293.65C1337.57 1284.65 1392.07 1268.65 1542.07 1276.65C1569.57 1277.65 1629.67 1277.05 1650.07 1266.65L1746.57 1049.65C1744.07 1019.65 1741.87 954.952 1753.07 936.152Z" fill="#3A3A3A" fill-opacity="0.5" stroke="white" stroke-width="8"/>
    <path d="M1420.94 1106.42C1417.44 1106.42 1414.37 1105.87 1411.73 1104.76C1409.12 1103.65 1406.91 1102.2 1405.07 1100.4L1409.49 1095.99C1411.02 1097.4 1412.71 1098.51 1414.54 1099.32C1416.42 1100.08 1418.55 1100.47 1420.94 1100.47C1423.97 1100.47 1426.38 1099.62 1428.18 1097.91C1430.01 1096.16 1430.93 1094.07 1430.93 1091.64C1430.93 1089.29 1430.1 1087.28 1428.43 1085.62C1426.77 1083.91 1424.42 1083.06 1421.39 1083.06C1419.94 1083.06 1418.53 1083.27 1417.17 1083.7C1415.8 1084.08 1414.59 1084.62 1413.52 1085.3L1408.08 1084.72L1409.36 1060.85H1436.82L1434.7 1066.74H1414.74L1414.03 1079.28H1414.16C1415.23 1078.73 1416.48 1078.26 1417.94 1077.88C1419.43 1077.49 1420.99 1077.3 1422.61 1077.3C1424.44 1077.3 1426.26 1077.62 1428.05 1078.26C1429.88 1078.86 1431.5 1079.75 1432.91 1080.95C1434.36 1082.14 1435.51 1083.66 1436.37 1085.49C1437.26 1087.28 1437.71 1089.35 1437.71 1091.7C1437.71 1095.71 1436.15 1099.17 1433.04 1102.07C1429.92 1104.97 1425.89 1106.42 1420.94 1106.42ZM1448.21 1105.65V1060.85H1463.45C1467.67 1060.85 1470.89 1062.05 1473.11 1064.44C1475.37 1066.83 1476.5 1069.36 1476.5 1072.05C1476.5 1073.93 1476.05 1075.66 1475.16 1077.24C1474.26 1078.77 1473.13 1079.95 1471.77 1080.76V1080.88C1474.37 1081.65 1476.54 1083.06 1478.29 1085.11C1480.04 1087.11 1480.92 1089.65 1480.92 1092.72C1480.92 1096.18 1479.57 1099.21 1476.89 1101.81C1474.2 1104.37 1470.61 1105.65 1466.13 1105.65H1448.21ZM1454.81 1079.6H1462.42C1464.43 1079.6 1466.13 1079.03 1467.54 1077.88C1468.99 1076.72 1469.72 1075.12 1469.72 1073.08C1469.72 1071.03 1468.99 1069.43 1467.54 1068.28C1466.13 1067.12 1464.43 1066.55 1462.42 1066.55H1454.81V1079.6ZM1454.81 1100.02H1465.3C1467.82 1100.02 1469.89 1099.34 1471.51 1097.97C1473.13 1096.56 1473.94 1094.75 1473.94 1092.53C1473.94 1090.27 1473.13 1088.46 1471.51 1087.09C1469.89 1085.68 1467.82 1084.98 1465.3 1084.98H1454.81V1100.02Z" fill="white"/>
</g>

<!-- Это зона 6А -->
<g id="zone-6a" class="slot-zone">
    <path d="M1746.57 1049.65L1650.07 1266.65C1714.07 1336.82 1845.87 1503.85 1861.07 1610.65L2039.57 1552.15C2048.07 1533.65 2064.27 1487.05 2061.07 1448.65C2057.07 1400.65 2042.57 1346.65 2047.57 1314.65C2052.57 1282.65 2075.07 1196.65 2072.07 1175.15C2069.07 1153.65 2035.07 1063.65 1753.07 936.152C1741.87 954.952 1744.07 1019.65 1746.57 1049.65Z" fill="#3A3A3A" fill-opacity="0.5" stroke="white" stroke-width="8"/>
    <path d="M1865.28 1290.42C1860.55 1290.42 1856.66 1288.88 1853.63 1285.81C1850.65 1282.7 1849.15 1278.92 1849.15 1274.48C1849.15 1271.16 1850.01 1267.79 1851.71 1264.37C1853.46 1260.96 1856.02 1257.06 1859.39 1252.66L1865.99 1244.08L1873.03 1244.85L1858.95 1262.58L1859.07 1262.71C1860.23 1261.98 1861.46 1261.43 1862.79 1261.04C1864.15 1260.62 1865.56 1260.4 1867.01 1260.4C1868.84 1260.4 1870.64 1260.77 1872.39 1261.49C1874.13 1262.18 1875.67 1263.16 1876.99 1264.44C1878.36 1265.67 1879.45 1267.21 1880.26 1269.04C1881.11 1270.88 1881.54 1272.91 1881.54 1275.12C1881.54 1277.13 1881.15 1279.07 1880.39 1280.95C1879.62 1282.78 1878.53 1284.4 1877.12 1285.81C1875.71 1287.22 1873.99 1288.35 1871.94 1289.2C1869.93 1290.02 1867.71 1290.42 1865.28 1290.42ZM1865.47 1284.72C1868.33 1284.72 1870.64 1283.79 1872.39 1281.91C1874.18 1279.99 1875.07 1277.79 1875.07 1275.32C1875.07 1272.8 1874.18 1270.6 1872.39 1268.72C1870.64 1266.85 1868.33 1265.91 1865.47 1265.91C1862.61 1265.91 1860.29 1266.85 1858.5 1268.72C1856.75 1270.6 1855.87 1272.8 1855.87 1275.32C1855.87 1277.79 1856.75 1279.99 1858.5 1281.91C1860.29 1283.79 1862.61 1284.72 1865.47 1284.72ZM1900.12 1272.82H1913.82L1907.03 1254.71H1906.9L1900.12 1272.82ZM1893.91 1289.65H1886.62L1904.22 1244.85H1910.04L1927.58 1289.65H1920.02L1915.86 1278.39H1898.07L1893.91 1289.65Z" fill="white"/>
</g>

<!-- Это зона 6Б -->
<g id="zone-6b" class="slot-zone">
    <path d="M2039.57 1552.15L1861.07 1610.65L1855.57 1687.15L1915.57 1788.65L1974.07 1748.65C1991.9 1741.15 2045.87 1737.55 2119.07 1783.15C2210.57 1840.15 2381.57 1907.65 2428.57 1913.15C2441.07 1913.82 2473.27 1920.65 2502.07 1942.65C2530.87 1964.65 2685.07 2096.82 2758.57 2160.15L2851.57 2153.65L2846.57 2072.15H2860.57L2871.57 2023.15H2896.57L2937.07 2041.65L2959.57 2004.65C2970.57 1997.65 2991.87 1978.65 2989.07 1958.65C2986.27 1938.65 2976.23 1913.65 2971.57 1903.65L2886.57 1850.65L2893.07 1820.65L2867.57 1814.15L2798.57 1820.65L2762.57 1738.15L2701.07 1674.15L2650.57 1541.65L2459.07 1605.65V1304.65L2047.57 1314.65C2042.57 1346.65 2057.07 1400.65 2061.07 1448.65C2064.27 1487.05 2048.07 1533.65 2039.57 1552.15Z" fill="#3A3A3A" fill-opacity="0.5" stroke="white" stroke-width="8"/>
    <path d="M2226 1613.42C2221.26 1613.42 2217.38 1611.88 2214.35 1608.81C2211.37 1605.7 2209.87 1601.92 2209.87 1597.48C2209.87 1594.16 2210.73 1590.79 2212.43 1587.37C2214.18 1583.96 2216.74 1580.06 2220.11 1575.66L2226.7 1567.08L2233.74 1567.85L2219.66 1585.58L2219.79 1585.71C2220.94 1584.98 2222.18 1584.43 2223.5 1584.04C2224.87 1583.62 2226.28 1583.4 2227.73 1583.4C2229.56 1583.4 2231.35 1583.77 2233.1 1584.49C2234.85 1585.18 2236.39 1586.16 2237.71 1587.44C2239.08 1588.67 2240.17 1590.21 2240.98 1592.04C2241.83 1593.88 2242.26 1595.91 2242.26 1598.12C2242.26 1600.13 2241.87 1602.07 2241.1 1603.95C2240.34 1605.78 2239.25 1607.4 2237.84 1608.81C2236.43 1610.22 2234.7 1611.35 2232.66 1612.2C2230.65 1613.02 2228.43 1613.42 2226 1613.42ZM2226.19 1607.72C2229.05 1607.72 2231.35 1606.79 2233.1 1604.91C2234.9 1602.99 2235.79 1600.79 2235.79 1598.32C2235.79 1595.8 2234.9 1593.6 2233.1 1591.72C2231.35 1589.85 2229.05 1588.91 2226.19 1588.91C2223.33 1588.91 2221.01 1589.85 2219.22 1591.72C2217.47 1593.6 2216.59 1595.8 2216.59 1598.32C2216.59 1600.79 2217.47 1602.99 2219.22 1604.91C2221.01 1606.79 2223.33 1607.72 2226.19 1607.72ZM2258.71 1606.83H2266.97C2269.57 1606.83 2271.75 1606.15 2273.5 1604.78C2275.29 1603.37 2276.18 1601.5 2276.18 1599.15C2276.18 1596.8 2275.29 1594.95 2273.5 1593.58C2271.75 1592.17 2269.57 1591.47 2266.97 1591.47H2258.71V1606.83ZM2252.12 1612.65V1567.85H2279.96L2277.85 1573.74H2258.71V1585.64H2267.35C2269.91 1585.64 2272.17 1586.03 2274.14 1586.8C2276.1 1587.56 2277.72 1588.59 2279 1589.87C2280.32 1591.11 2281.3 1592.54 2281.94 1594.16C2282.63 1595.78 2282.97 1597.44 2282.97 1599.15C2282.97 1600.86 2282.63 1602.52 2281.94 1604.14C2281.3 1605.76 2280.32 1607.21 2279 1608.49C2277.72 1609.73 2276.1 1610.73 2274.14 1611.5C2272.17 1612.27 2269.91 1612.65 2267.35 1612.65H2252.12Z" fill="white"/>
</g>

<!-- Это зона 6В -->
<g id="zone-6c" class="slot-zone">
    <path d="M2047.57 1314.65L2459.07 1304.65C2459.07 1276.65 2457.67 1201.35 2452.07 1124.15C2446.47 1046.95 2409.07 1001.32 2391.07 988.152L2018.57 649.652L1765.57 893.152L1753.07 936.152C2035.07 1063.65 2069.07 1153.65 2072.07 1175.15C2075.07 1196.65 2052.57 1282.65 2047.57 1314.65Z" fill="#3A3A3A" fill-opacity="0.5" stroke="white" stroke-width="8"/>
    <path d="M2141.06 1042.42C2136.33 1042.42 2132.44 1040.88 2129.41 1037.81C2126.43 1034.7 2124.93 1030.92 2124.93 1026.48C2124.93 1023.16 2125.79 1019.79 2127.49 1016.37C2129.24 1012.96 2131.8 1009.06 2135.17 1004.66L2141.77 996.084L2148.81 996.852L2134.73 1014.58L2134.85 1014.71C2136.01 1013.98 2137.24 1013.43 2138.57 1013.04C2139.93 1012.62 2141.34 1012.4 2142.79 1012.4C2144.63 1012.4 2146.42 1012.77 2148.17 1013.49C2149.92 1014.18 2151.45 1015.16 2152.77 1016.44C2154.14 1017.67 2155.23 1019.21 2156.04 1021.04C2156.89 1022.88 2157.32 1024.91 2157.32 1027.12C2157.32 1029.13 2156.93 1031.07 2156.17 1032.95C2155.4 1034.78 2154.31 1036.4 2152.9 1037.81C2151.49 1039.22 2149.77 1040.35 2147.72 1041.2C2145.71 1042.02 2143.49 1042.42 2141.06 1042.42ZM2141.25 1036.72C2144.11 1036.72 2146.42 1035.79 2148.17 1033.91C2149.96 1031.99 2150.85 1029.79 2150.85 1027.32C2150.85 1024.8 2149.96 1022.6 2148.17 1020.72C2146.42 1018.85 2144.11 1017.91 2141.25 1017.91C2138.4 1017.91 2136.07 1018.85 2134.28 1020.72C2132.53 1022.6 2131.65 1024.8 2131.65 1027.32C2131.65 1029.79 2132.53 1031.99 2134.28 1033.91C2136.07 1035.79 2138.4 1036.72 2141.25 1036.72ZM2167.18 1041.65V996.852H2182.41C2186.64 996.852 2189.86 998.047 2192.08 1000.44C2194.34 1002.83 2195.47 1005.36 2195.47 1008.05C2195.47 1009.93 2195.02 1011.66 2194.13 1013.24C2193.23 1014.77 2192.1 1015.95 2190.73 1016.76V1016.88C2193.34 1017.65 2195.51 1019.06 2197.26 1021.11C2199.01 1023.11 2199.89 1025.65 2199.89 1028.72C2199.89 1032.18 2198.54 1035.21 2195.85 1037.81C2193.17 1040.37 2189.58 1041.65 2185.1 1041.65H2167.18ZM2173.77 1015.6H2181.39C2183.4 1015.6 2185.1 1015.03 2186.51 1013.88C2187.96 1012.72 2188.69 1011.12 2188.69 1009.08C2188.69 1007.03 2187.96 1005.43 2186.51 1004.28C2185.1 1003.12 2183.4 1002.55 2181.39 1002.55H2173.77V1015.6ZM2173.77 1036.02H2184.27C2186.79 1036.02 2188.86 1035.34 2190.48 1033.97C2192.1 1032.56 2192.91 1030.75 2192.91 1028.53C2192.91 1026.27 2192.1 1024.46 2190.48 1023.09C2188.86 1021.68 2186.79 1020.98 2184.27 1020.98H2173.77V1036.02Z" fill="white"/>
</g>

<!-- Это зона 7А -->
<g id="zone-7a" class="slot-zone">
    <path d="M574.068 1009.15C584.068 967.152 569.901 901.319 561.568 873.652C568.368 717.252 703.068 640.152 769.568 621.152L902.568 903.652L826.068 1084.65L1013.57 1170.65L1123.57 1207.15L1296.07 1336.15L1247.57 1406.15C1199.97 1412.15 1178.07 1457.99 1173.07 1480.15L1072.07 1454.15L1059.57 1465.15L1072.07 1483.15L1033.57 1501.15C986.768 1449.15 910.401 1460.49 878.068 1472.65L796.068 1390.65L789.068 1283.65L796.068 1207.15L777.568 1163.15H723.068L673.068 1131.15L632.568 1043.15L574.068 1009.15Z" fill="#3A3A3A" fill-opacity="0.5" stroke="white" stroke-width="8"/>
    <path d="M929.939 1328.65L946.195 1289.74H923.731V1283.85H953.491V1288.78L937.363 1328.65H929.939ZM968.182 1311.82H981.878L975.094 1293.71H974.966L968.182 1311.82ZM961.974 1328.65H954.678L972.278 1283.85H978.102L995.638 1328.65H988.086L983.926 1317.39H966.134L961.974 1328.65Z" fill="white"/>
</g>

<!-- Это зона 7Б -->
<g id="zone-7b" class="slot-zone">
    <path d="M1161.57 1675.15L663.068 1836.15C632.568 1841.49 563.468 1855.25 531.068 1867.65C525.902 1838.65 512.968 1774.65 502.568 1750.65C489.568 1720.65 464.068 1650.65 468.068 1587.15C471.268 1536.35 469.402 1387.65 468.068 1319.65C491.235 1294.32 539.068 1226.05 545.068 1155.65L433.068 1061.65L390.068 988.152L377.568 971.152C370.568 962.652 369.068 959.652 356.568 941.153C344.152 922.777 335.402 882.319 335.568 861.653C341.735 847.986 353.568 815.053 351.568 792.653C349.068 764.653 397.568 736.653 423.568 740.653C456.902 779.986 531.168 861.652 561.568 873.652C569.902 901.319 584.068 967.152 574.068 1009.15L632.568 1043.15L673.068 1131.15L723.068 1163.15H777.568L796.068 1207.15L789.068 1283.65L796.068 1390.65L878.068 1472.65C910.402 1460.49 986.768 1449.15 1033.57 1501.15L1072.07 1483.15L1059.57 1465.15L1072.07 1454.15L1173.07 1480.15C1163.73 1516.65 1148.37 1606.75 1161.57 1675.15Z" fill="#3A3A3A" fill-opacity="0.5" stroke="white" stroke-width="8"/>
    <path d="M739.908 1614.65L756.164 1575.74H733.7V1569.85H763.46V1574.78L747.332 1614.65H739.908ZM780.524 1608.83H788.78C791.383 1608.83 793.559 1608.15 795.308 1606.78C797.1 1605.37 797.996 1603.5 797.996 1601.15C797.996 1598.8 797.1 1596.95 795.308 1595.58C793.559 1594.17 791.383 1593.47 788.78 1593.47H780.524V1608.83ZM773.932 1614.65V1569.85H801.772L799.66 1575.74H780.524V1587.64H789.164C791.724 1587.64 793.985 1588.03 795.948 1588.8C797.911 1589.56 799.532 1590.59 800.812 1591.87C802.135 1593.11 803.116 1594.54 803.756 1596.16C804.439 1597.78 804.78 1599.44 804.78 1601.15C804.78 1602.86 804.439 1604.52 803.756 1606.14C803.116 1607.76 802.135 1609.21 800.812 1610.49C799.532 1611.73 797.911 1612.73 795.948 1613.5C793.985 1614.27 791.724 1614.65 789.164 1614.65H773.932Z" fill="white"/>
</g>

<!-- Это зона 7В -->
<g id="zone-7c" class="slot-zone">
    <path d="M1101.57 2191.65L1368.07 1903.15C1280.47 1838.75 1193.9 1724.32 1161.57 1675.15L663.068 1836.15C549.468 1859.75 532.24 1860.53 461.568 1904.15C372.607 1959.06 313.235 2046.49 283.068 2103.65L371.068 2152.15L420.068 2125.65L438.068 2138.65L449.568 2106.15L542.068 2002.15L507.068 1976.15L513.568 1896.15L537.568 1879.65L650.568 2041.15L709.568 2207.15L524.568 2298.15C504.235 2297.32 449.868 2296.15 395.068 2298.15C340.268 2300.15 302.235 2351.32 290.068 2376.65H201.068V2403.15C176.668 2435.55 181.568 2479.99 187.068 2498.15L298.568 2704.65L397.568 2655.15L403.068 2741.65L368.568 2779.15L495.068 2889.15L606.068 2806.15L680.068 2684.15C644.868 2624.15 579.735 2603.82 551.568 2601.15L493.568 2618.15L487.068 2604.15C479.868 2526.95 433.735 2489.32 411.568 2480.15L466.068 2424.15L614.568 2402.15C619.901 2411.15 639.268 2430.15 674.068 2434.15C708.868 2438.15 722.901 2418.15 725.568 2407.65L728.568 2353.65L780.568 2327.65C786.168 2344.85 829.901 2401.15 851.068 2427.15C901.868 2403.15 1039.23 2260.15 1101.57 2191.65Z" fill="#3A3A3A" fill-opacity="0.5" stroke="white" stroke-width="8"/>
    <path d="M861.97 2037.65L878.226 1998.74H855.762V1992.85H885.522V1997.78L869.394 2037.65H861.97ZM895.995 2037.65V1992.85H911.227C915.451 1992.85 918.672 1994.05 920.891 1996.44C923.152 1998.83 924.283 2001.36 924.283 2004.05C924.283 2005.93 923.835 2007.66 922.939 2009.24C922.043 2010.77 920.912 2011.95 919.547 2012.76V2012.88C922.149 2013.65 924.325 2015.06 926.075 2017.11C927.824 2019.11 928.699 2021.65 928.699 2024.72C928.699 2028.18 927.355 2031.21 924.667 2033.81C921.979 2036.37 918.395 2037.65 913.915 2037.65H895.995ZM902.587 2011.6H910.203C912.208 2011.6 913.915 2011.03 915.323 2009.88C916.773 2008.72 917.499 2007.12 917.499 2005.08C917.499 2003.03 916.773 2001.43 915.323 2000.28C913.915 1999.12 912.208 1998.55 910.203 1998.55H902.587V2011.6ZM902.587 2032.02H913.083C915.6 2032.02 917.669 2031.34 919.291 2029.97C920.912 2028.56 921.723 2026.75 921.723 2024.53C921.723 2022.27 920.912 2020.46 919.291 2019.09C917.669 2017.68 915.6 2016.98 913.083 2016.98H902.587V2032.02Z" fill="white"/>
</g>

<!-- Это зона 8А -->
<g id="zone-8a" class="slot-zone">
    <path d="M1643.57 2429.65L1799.07 2440.65L1825.57 2386.15L1743.07 2316.15L1757.07 2209.65L1884.57 2131.15H1926.07V2045.65C1916.4 2031.32 1895.77 1998.35 1890.57 1981.15L1869.57 1977.65L1855.57 1994.15L1751.07 1968.65L1723.07 1940.15V1917.65L1704.32 1932.15L1685.57 1946.65L1544.57 1933.15L1494.07 1962.15C1465.07 1953.32 1399.27 1929.15 1368.07 1903.15L1101.57 2191.65L1138.07 2239.15L1178.57 2237.65L1195.07 2223.65L1359.57 2326.65H1396.57H1540.07L1550.07 2418.65L1643.57 2429.65Z" fill="#3A3A3A" fill-opacity="0.5" stroke="white" stroke-width="8"/>
    <path d="M1507.35 2121.8C1510.17 2121.8 1512.32 2121.09 1513.81 2119.68C1515.31 2118.23 1516.05 2116.59 1516.05 2114.76C1516.05 2112.92 1515.31 2111.3 1513.81 2109.89C1512.32 2108.44 1510.17 2107.72 1507.35 2107.72C1504.53 2107.72 1502.38 2108.44 1500.89 2109.89C1499.39 2111.3 1498.65 2112.92 1498.65 2114.76C1498.65 2116.59 1499.39 2118.23 1500.89 2119.68C1502.38 2121.09 1504.53 2121.8 1507.35 2121.8ZM1507.35 2127.62C1504.28 2127.62 1501.91 2128.41 1500.25 2129.99C1498.58 2131.57 1497.75 2133.34 1497.75 2135.3C1497.75 2137.22 1498.58 2138.97 1500.25 2140.55C1501.91 2142.08 1504.28 2142.85 1507.35 2142.85C1510.42 2142.85 1512.79 2142.08 1514.45 2140.55C1516.12 2138.97 1516.95 2137.22 1516.95 2135.3C1516.95 2133.34 1516.12 2131.57 1514.45 2129.99C1512.79 2128.41 1510.42 2127.62 1507.35 2127.62ZM1507.35 2102.08C1512 2102.08 1515.71 2103.26 1518.49 2105.6C1521.26 2107.95 1522.65 2110.94 1522.65 2114.56C1522.65 2116.57 1522.03 2118.51 1520.79 2120.39C1519.6 2122.27 1517.91 2123.63 1515.73 2124.48V2124.61C1517.91 2125.42 1519.77 2126.83 1521.3 2128.84C1522.88 2130.8 1523.67 2132.98 1523.67 2135.36C1523.67 2139.29 1522.13 2142.45 1519.06 2144.84C1516.03 2147.23 1512.13 2148.42 1507.35 2148.42C1502.57 2148.42 1498.65 2147.23 1495.57 2144.84C1492.54 2142.45 1491.03 2139.29 1491.03 2135.36C1491.03 2132.98 1491.8 2130.8 1493.33 2128.84C1494.91 2126.83 1496.79 2125.42 1498.97 2124.61V2124.48C1496.79 2123.63 1495.08 2122.27 1493.85 2120.39C1492.65 2118.51 1492.05 2116.57 1492.05 2114.56C1492.05 2110.94 1493.44 2107.95 1496.21 2105.6C1498.99 2103.26 1502.7 2102.08 1507.35 2102.08ZM1542.31 2130.82H1556L1549.22 2112.71H1549.09L1542.31 2130.82ZM1536.1 2147.65H1528.8L1546.4 2102.85H1552.23L1569.76 2147.65H1562.21L1558.05 2136.39H1540.26L1536.1 2147.65Z" fill="white"/>
</g>

<!-- Это зона 8Б -->
<g id="zone-8b" class="slot-zone">
    <path d="M1323.57 2857.65C1309.73 2876.32 1280.67 2923.35 1275.07 2962.15C1269.47 3000.95 1245.4 3049.99 1234.07 3069.65C1206.57 3070.15 1140.67 3078.55 1097.07 3108.15C1042.57 3145.15 1014.07 3162.65 953.568 3167.65C943.401 3172.32 929.168 3194.75 953.568 3247.15C977.968 3299.55 974.568 3309.15 977.068 3317.65C992.068 3315.65 1011.27 3313.75 1046.07 3294.15H1117.57L1176.57 3326.15L1178.07 3270.15C1182.07 3258.15 1198.57 3234.25 1232.57 3234.65C1275.07 3235.15 1302.57 3273.65 1301.57 3291.65L1329.07 3123.15C1362.57 3079.49 1434.27 2990.45 1453.07 2983.65C1471.87 2976.85 1491.9 2929.49 1499.57 2906.65C1569.07 2915.99 1728.97 2926.95 1812.57 2896.15L1750.07 2790.15L1738.07 2705.15L1690.07 2606.15L1682.57 2511.15H1633.07L1643.57 2429.65L1550.07 2418.65L1540.07 2326.65H1396.57H1359.57L1195.07 2223.65L1178.57 2237.65L1138.07 2239.15L1101.57 2191.65C1039.23 2260.15 901.868 2403.15 851.068 2427.15L1048.57 2734.65L1323.57 2857.65Z" fill="#3A3A3A" fill-opacity="0.5" stroke="white" stroke-width="8"/>
    <path d="M1261.57 2551.8C1264.38 2551.8 1266.54 2551.09 1268.03 2549.68C1269.53 2548.23 1270.27 2546.59 1270.27 2544.76C1270.27 2542.92 1269.53 2541.3 1268.03 2539.89C1266.54 2538.44 1264.38 2537.72 1261.57 2537.72C1258.75 2537.72 1256.6 2538.44 1255.1 2539.89C1253.61 2541.3 1252.86 2542.92 1252.86 2544.76C1252.86 2546.59 1253.61 2548.23 1255.1 2549.68C1256.6 2551.09 1258.75 2551.8 1261.57 2551.8ZM1261.57 2557.62C1258.5 2557.62 1256.13 2558.41 1254.46 2559.99C1252.8 2561.57 1251.97 2563.34 1251.97 2565.3C1251.97 2567.22 1252.8 2568.97 1254.46 2570.55C1256.13 2572.08 1258.5 2572.85 1261.57 2572.85C1264.64 2572.85 1267.01 2572.08 1268.67 2570.55C1270.34 2568.97 1271.17 2567.22 1271.17 2565.3C1271.17 2563.34 1270.34 2561.57 1268.67 2559.99C1267.01 2558.41 1264.64 2557.62 1261.57 2557.62ZM1261.57 2532.08C1266.22 2532.08 1269.93 2533.26 1272.7 2535.6C1275.48 2537.95 1276.86 2540.94 1276.86 2544.56C1276.86 2546.57 1276.25 2548.51 1275.01 2550.39C1273.81 2552.27 1272.13 2553.63 1269.95 2554.48V2554.61C1272.13 2555.42 1273.98 2556.83 1275.52 2558.84C1277.1 2560.8 1277.89 2562.98 1277.89 2565.36C1277.89 2569.29 1276.35 2572.45 1273.28 2574.84C1270.25 2577.23 1266.35 2578.42 1261.57 2578.42C1256.79 2578.42 1252.86 2577.23 1249.79 2574.84C1246.76 2572.45 1245.25 2569.29 1245.25 2565.36C1245.25 2562.98 1246.02 2560.8 1247.55 2558.84C1249.13 2556.83 1251.01 2555.42 1253.18 2554.61V2554.48C1251.01 2553.63 1249.3 2552.27 1248.06 2550.39C1246.87 2548.51 1246.27 2546.57 1246.27 2544.56C1246.27 2540.94 1247.66 2537.95 1250.43 2535.6C1253.21 2533.26 1256.92 2532.08 1261.57 2532.08ZM1294.4 2571.83H1302.66C1305.26 2571.83 1307.43 2571.15 1309.18 2569.78C1310.98 2568.37 1311.87 2566.5 1311.87 2564.15C1311.87 2561.8 1310.98 2559.95 1309.18 2558.58C1307.43 2557.17 1305.26 2556.47 1302.66 2556.47H1294.4V2571.83ZM1287.81 2577.65V2532.85H1315.65L1313.54 2538.74H1294.4V2550.64H1303.04C1305.6 2550.64 1307.86 2551.03 1309.82 2551.8C1311.79 2552.56 1313.41 2553.59 1314.69 2554.87C1316.01 2556.11 1316.99 2557.54 1317.63 2559.16C1318.31 2560.78 1318.66 2562.44 1318.66 2564.15C1318.66 2565.86 1318.31 2567.52 1317.63 2569.14C1316.99 2570.76 1316.01 2572.21 1314.69 2573.49C1313.41 2574.73 1311.79 2575.73 1309.82 2576.5C1307.86 2577.27 1305.6 2577.65 1303.04 2577.65H1287.81Z" fill="white"/>
</g>

<!-- Это зона 8В -->
<g id="zone-8c" class="slot-zone">
    <path d="M1935.07 2194.15L1926.07 2131.15V2046.15C1916.4 2031.82 1895.77 1998.85 1890.57 1981.65L1869.57 1978.15L1855.57 1994.65L1751.07 1969.15L1723.07 1940.65V1918.15L1974.07 1748.65C1991.9 1741.15 2045.87 1737.55 2119.07 1783.15C2210.57 1840.15 2381.57 1907.65 2428.57 1913.15C2418.07 1976.65 2403.37 2114.45 2428.57 2157.65C2460.07 2211.65 2463.07 2304.15 2442.57 2329.65C2426.17 2350.05 2316.73 2473.15 2264.07 2532.15C2190.07 2431.75 2233.23 2330.32 2264.07 2292.15C2210.07 2292.95 2153.23 2233.82 2131.57 2204.15C2093.57 2204.15 2051.07 2235.15 2034.57 2250.65L1935.07 2194.15Z" fill="#3A3A3A" fill-opacity="0.5" stroke="white" stroke-width="8"/>
    <path d="M2127.13 2021.8C2129.95 2021.8 2132.1 2021.09 2133.6 2019.68C2135.09 2018.23 2135.84 2016.59 2135.84 2014.76C2135.84 2012.92 2135.09 2011.3 2133.6 2009.89C2132.1 2008.44 2129.95 2007.72 2127.13 2007.72C2124.32 2007.72 2122.16 2008.44 2120.67 2009.89C2119.17 2011.3 2118.43 2012.92 2118.43 2014.76C2118.43 2016.59 2119.17 2018.23 2120.67 2019.68C2122.16 2021.09 2124.32 2021.8 2127.13 2021.8ZM2127.13 2027.62C2124.06 2027.62 2121.69 2028.41 2120.03 2029.99C2118.36 2031.57 2117.53 2033.34 2117.53 2035.3C2117.53 2037.22 2118.36 2038.97 2120.03 2040.55C2121.69 2042.08 2124.06 2042.85 2127.13 2042.85C2130.2 2042.85 2132.57 2042.08 2134.24 2040.55C2135.9 2038.97 2136.73 2037.22 2136.73 2035.3C2136.73 2033.34 2135.9 2031.57 2134.24 2029.99C2132.57 2028.41 2130.2 2027.62 2127.13 2027.62ZM2127.13 2002.08C2131.78 2002.08 2135.49 2003.26 2138.27 2005.6C2141.04 2007.95 2142.43 2010.94 2142.43 2014.56C2142.43 2016.57 2141.81 2018.51 2140.57 2020.39C2139.38 2022.27 2137.69 2023.63 2135.52 2024.48V2024.61C2137.69 2025.42 2139.55 2026.83 2141.08 2028.84C2142.66 2030.8 2143.45 2032.98 2143.45 2035.36C2143.45 2039.29 2141.92 2042.45 2138.84 2044.84C2135.81 2047.23 2131.91 2048.42 2127.13 2048.42C2122.35 2048.42 2118.43 2047.23 2115.36 2044.84C2112.33 2042.45 2110.81 2039.29 2110.81 2035.36C2110.81 2032.98 2111.58 2030.8 2113.12 2028.84C2114.69 2026.83 2116.57 2025.42 2118.75 2024.61V2024.48C2116.57 2023.63 2114.86 2022.27 2113.63 2020.39C2112.43 2018.51 2111.84 2016.57 2111.84 2014.56C2111.84 2010.94 2113.22 2007.95 2116 2005.6C2118.77 2003.26 2122.48 2002.08 2127.13 2002.08ZM2153.37 2047.65V2002.85H2168.6C2172.83 2002.85 2176.05 2004.05 2178.27 2006.44C2180.53 2008.83 2181.66 2011.36 2181.66 2014.05C2181.66 2015.93 2181.21 2017.66 2180.31 2019.24C2179.42 2020.77 2178.29 2021.95 2176.92 2022.76V2022.88C2179.52 2023.65 2181.7 2025.06 2183.45 2027.11C2185.2 2029.11 2186.07 2031.65 2186.07 2034.72C2186.07 2038.18 2184.73 2041.21 2182.04 2043.81C2179.35 2046.37 2175.77 2047.65 2171.29 2047.65H2153.37ZM2159.96 2021.6H2167.58C2169.58 2021.6 2171.29 2021.03 2172.7 2019.88C2174.15 2018.72 2174.87 2017.12 2174.87 2015.08C2174.87 2013.03 2174.15 2011.43 2172.7 2010.28C2171.29 2009.12 2169.58 2008.55 2167.58 2008.55H2159.96V2021.6ZM2159.96 2042.02H2170.46C2172.97 2042.02 2175.04 2041.34 2176.67 2039.97C2178.29 2038.56 2179.1 2036.75 2179.1 2034.53C2179.1 2032.27 2178.29 2030.46 2176.67 2029.09C2175.04 2027.68 2172.97 2026.98 2170.46 2026.98H2159.96V2042.02Z" fill="white"/>
</g>

<!-- Это зона 8Г -->
<g id="zone-8d" class="slot-zone">
    <path d="M1750.07 2790.15L1812.57 2896.15C1893.37 2861.35 2147.23 2638.99 2264.07 2532.15C2190.07 2431.75 2233.23 2330.32 2264.07 2292.15C2210.07 2292.95 2153.23 2233.82 2131.57 2204.15C2093.57 2204.15 2051.07 2235.15 2034.57 2250.65L1935.07 2194.15L1926.07 2131.15H1884.57L1757.07 2209.65L1743.07 2316.15L1825.57 2386.15L1799.07 2440.65L1643.57 2429.65L1633.07 2511.15H1682.57L1690.07 2606.15L1738.07 2705.15L1750.07 2790.15Z" fill="#3A3A3A" fill-opacity="0.5" stroke="white" stroke-width="8"/>
    <path d="M1949.57 2526.8C1952.38 2526.8 1954.54 2526.09 1956.03 2524.68C1957.53 2523.23 1958.27 2521.59 1958.27 2519.76C1958.27 2517.92 1957.53 2516.3 1956.03 2514.89C1954.54 2513.44 1952.38 2512.72 1949.57 2512.72C1946.75 2512.72 1944.6 2513.44 1943.1 2514.89C1941.61 2516.3 1940.86 2517.92 1940.86 2519.76C1940.86 2521.59 1941.61 2523.23 1943.1 2524.68C1944.6 2526.09 1946.75 2526.8 1949.57 2526.8ZM1949.57 2532.62C1946.5 2532.62 1944.13 2533.41 1942.46 2534.99C1940.8 2536.57 1939.97 2538.34 1939.97 2540.3C1939.97 2542.22 1940.8 2543.97 1942.46 2545.55C1944.13 2547.08 1946.5 2547.85 1949.57 2547.85C1952.64 2547.85 1955.01 2547.08 1956.67 2545.55C1958.34 2543.97 1959.17 2542.22 1959.17 2540.3C1959.17 2538.34 1958.34 2536.57 1956.67 2534.99C1955.01 2533.41 1952.64 2532.62 1949.57 2532.62ZM1949.57 2507.08C1954.22 2507.08 1957.93 2508.26 1960.7 2510.6C1963.48 2512.95 1964.86 2515.94 1964.86 2519.56C1964.86 2521.57 1964.25 2523.51 1963.01 2525.39C1961.81 2527.27 1960.13 2528.63 1957.95 2529.48V2529.61C1960.13 2530.42 1961.98 2531.83 1963.52 2533.84C1965.1 2535.8 1965.89 2537.98 1965.89 2540.36C1965.89 2544.29 1964.35 2547.45 1961.28 2549.84C1958.25 2552.23 1954.35 2553.42 1949.57 2553.42C1944.79 2553.42 1940.86 2552.23 1937.79 2549.84C1934.76 2547.45 1933.25 2544.29 1933.25 2540.36C1933.25 2537.98 1934.02 2535.8 1935.55 2533.84C1937.13 2531.83 1939.01 2530.42 1941.18 2529.61V2529.48C1939.01 2528.63 1937.3 2527.27 1936.06 2525.39C1934.87 2523.51 1934.27 2521.57 1934.27 2519.56C1934.27 2515.94 1935.66 2512.95 1938.43 2510.6C1941.21 2508.26 1944.92 2507.08 1949.57 2507.08ZM1975.81 2552.65V2507.85H2003.65L2001.54 2513.74H1982.4V2552.65H1975.81Z" fill="white"/>
</g>

<!-- Это зона Зеленограда -->
<g id="zone-zelenograd" class="slot-zone">
    <path d="M578.568 214.652L541.568 186.652L553.068 164.152L501.068 112.152L484.568 117.152L457.568 92.6523V128.152L423.068 146.652L221.068 6.65234L202.568 87.1523H81.0679L15.0679 146.652L4.06787 181.652L33.5679 449.152L59.5679 425.652L117.568 466.652L143.068 375.152H186.568V458.152L252.068 491.152L290.568 387.652V295.152L371.568 250.152L501.068 307.652L560.068 258.652L586.068 274.652L606.568 245.152L600.068 200.152L578.568 214.652Z" fill="#3A3A3A" fill-opacity="0.5" stroke="white" stroke-width="8"/>
    <path d="M120.841 236.92C117.47 236.92 114.419 236.408 111.689 235.384C109.001 234.318 106.697 232.846 104.777 230.968L109.129 226.616C110.579 227.939 112.265 229.006 114.185 229.816C116.105 230.584 118.281 230.968 120.713 230.968C123.657 230.968 126.067 230.264 127.945 228.856C129.822 227.406 130.761 225.55 130.761 223.288C130.761 220.984 129.907 219.171 128.201 217.848C126.494 216.483 124.083 215.8 120.969 215.8H115.273V210.424H120.713C123.145 210.424 125.193 209.806 126.857 208.568C128.563 207.288 129.417 205.475 129.417 203.128C129.417 201.166 128.649 199.587 127.113 198.392C125.577 197.155 123.678 196.536 121.417 196.536C119.369 196.536 117.427 196.942 115.593 197.752C113.758 198.563 112.137 199.544 110.729 200.696L106.569 196.536C108.489 194.744 110.75 193.315 113.353 192.248C115.955 191.139 118.729 190.584 121.673 190.584C124.147 190.584 126.281 190.947 128.073 191.672C129.907 192.355 131.401 193.251 132.553 194.36C133.747 195.47 134.622 196.75 135.177 198.2C135.774 199.651 136.073 201.102 136.073 202.552C136.073 204.472 135.518 206.328 134.409 208.12C133.342 209.912 131.806 211.299 129.801 212.28V212.408C131.977 213.219 133.811 214.584 135.305 216.504C136.841 218.382 137.609 220.643 137.609 223.288C137.609 227 136.115 230.2 133.129 232.888C130.185 235.576 126.089 236.92 120.841 236.92ZM156.139 231.672C158.272 231.672 160.128 230.947 161.707 229.496C163.328 228.003 164.139 225.976 164.139 223.416V221.816C163.2 221.688 162.219 221.582 161.195 221.496C160.171 221.411 159.296 221.368 158.571 221.368C155.84 221.368 153.75 221.859 152.299 222.84C150.848 223.779 150.123 225.059 150.123 226.68C150.123 227.96 150.635 229.112 151.659 230.136C152.683 231.16 154.176 231.672 156.139 231.672ZM154.859 236.92C151.659 236.92 149.014 235.939 146.923 233.976C144.832 231.971 143.787 229.539 143.787 226.68C143.787 224.078 144.854 221.71 146.987 219.576C149.163 217.443 152.726 216.376 157.675 216.376C158.571 216.376 159.595 216.44 160.747 216.568C161.942 216.654 163.072 216.782 164.139 216.952V215.288C164.139 213.326 163.499 211.832 162.219 210.808C160.939 209.784 159.318 209.272 157.355 209.272C155.734 209.272 154.176 209.571 152.683 210.168C151.19 210.766 149.974 211.384 149.035 212.024L145.067 208.056C146.603 206.776 148.438 205.752 150.571 204.984C152.747 204.174 155.051 203.768 157.483 203.768C161.451 203.768 164.587 204.835 166.891 206.968C169.238 209.102 170.411 212.003 170.411 215.672V236.152H164.267V232.696H164.139C163.2 233.976 161.92 235 160.299 235.768C158.678 236.536 156.864 236.92 154.859 236.92ZM178.692 236.792C178.052 236.792 177.412 236.707 176.772 236.536C176.175 236.366 175.812 236.259 175.684 236.216V230.776C175.769 230.819 175.961 230.883 176.26 230.968C176.559 231.054 176.9 231.096 177.284 231.096C178.735 231.096 179.759 230.307 180.356 228.728C180.996 227.15 181.444 224.76 181.7 221.56C181.871 219.384 182.02 217.272 182.148 215.224C182.319 213.134 182.447 211.32 182.532 209.784C182.617 208.206 182.681 206.947 182.724 206.008C182.809 205.027 182.852 204.536 182.852 204.536H204.228V236.152H197.892V209.72H188.42C188.377 211.256 188.292 213.112 188.164 215.288C188.036 217.464 187.887 219.619 187.716 221.752C187.375 226.574 186.521 230.286 185.156 232.888C183.791 235.491 181.636 236.792 178.692 236.792ZM224.401 219.32H238.097L231.313 201.208H231.185L224.401 219.32ZM218.193 236.152H210.897L228.497 191.352H234.321L251.857 236.152H244.305L240.145 224.888H222.353L218.193 236.152ZM278.646 236.92C275.616 236.92 272.758 236.344 270.07 235.192C267.382 234.04 265.035 232.44 263.03 230.392C261.067 228.344 259.51 225.912 258.358 223.096C257.206 220.238 256.63 217.123 256.63 213.752C256.63 210.382 257.206 207.288 258.358 204.472C259.51 201.614 261.067 199.16 263.03 197.112C265.035 195.064 267.382 193.464 270.07 192.312C272.758 191.16 275.616 190.584 278.646 190.584C281.675 190.584 284.534 191.16 287.222 192.312C289.91 193.464 292.235 195.064 294.198 197.112C296.203 199.16 297.782 201.614 298.934 204.472C300.086 207.288 300.662 210.382 300.662 213.752C300.662 217.123 300.086 220.238 298.934 223.096C297.782 225.912 296.203 228.344 294.198 230.392C292.235 232.44 289.91 234.04 287.222 235.192C284.534 236.344 281.675 236.92 278.646 236.92ZM278.646 230.968C283.126 230.968 286.774 229.326 289.59 226.04C292.406 222.755 293.814 218.659 293.814 213.752C293.814 208.888 292.406 204.814 289.59 201.528C286.774 198.2 283.126 196.536 278.646 196.536C274.208 196.536 270.56 198.2 267.702 201.528C264.886 204.814 263.478 208.888 263.478 213.752C263.478 218.659 264.886 222.755 267.702 226.04C270.56 229.326 274.208 230.968 278.646 230.968Z" fill="white"/>
</g>

</svg>